<?xml version="1.0" encoding="UTF-8"?>
<!DOCTYPE svg PUBLIC "-//W3C//DTD SVG 1.1//EN" "http://www.w3.org/Graphics/SVG/1.1/DTD/svg11.dtd">
<!-- Creator: CorelDRAW -->
<svg xmlns="http://www.w3.org/2000/svg" xml:space="preserve" width="512px" height="512px" version="1.1" style="shape-rendering:geometricPrecision; text-rendering:geometricPrecision; image-rendering:optimizeQuality; fill-rule:evenodd; clip-rule:evenodd"
viewBox="0 0 512 512"
 xmlns:xlink="http://www.w3.org/1999/xlink"
 xmlns:xodm="http://www.corel.com/coreldraw/odm/2003">
 <defs>
  <style type="text/css">
   <![CDATA[
    .fil0 {fill:#facc15}
   ]]>
  </style>
 </defs>
 <g id="Layer_x0020_1">
  <metadata id="CorelCorpID_0Corel-Layer"/>
  <path class="fil0" d="M256 511.92c-14.85,0 -29.79,-7.69 -44.42,-22.85 -2.61,-1.44 -11.6,-6.63 -23.07,-15.86 -26.74,-21.54 -69.5,-67.46 -68.65,-140.24l-5.7 6.67c-1.15,1.35 -2.93,1.99 -4.68,1.68 -1.75,-0.32 -3.19,-1.53 -3.81,-3.19 -0.57,-1.54 -12.99,-36.2 6.5,-79.23 -4.27,1.25 -9.99,4.33 -16.34,11.57 -1.22,1.39 -3.11,1.99 -4.9,1.56 -1.8,-0.42 -3.22,-1.8 -3.69,-3.59 -0.28,-1.04 -6.23,-24.86 11.68,-51.57 -5.4,-5.51 -15.95,-17.64 -19.62,-31.68 -0.42,-1.62 0,-3.34 1.11,-4.59 1.11,-1.25 2.77,-1.85 4.43,-1.62 0,0 0,0 0,0 0,0 0.87,0.11 2.29,0.11 4.44,0 12.85,-1.03 19.22,-7.9 6.94,-7.49 9.79,-19.95 8.49,-37.04 -0.01,-0.07 -0.01,-0.14 -0.02,-0.21 -0.14,-4.02 -2.89,-98.83 45.1,-132.93 1.21,-0.86 2.75,-1.14 4.18,-0.76 1.44,0.39 2.63,1.39 3.25,2.74 0.36,0.77 36.01,76.87 88.65,89.74 52.71,-12.88 88.29,-88.97 88.65,-89.74 0.62,-1.35 1.81,-2.35 3.25,-2.74 1.44,-0.38 2.97,-0.1 4.18,0.76 47.99,34.1 45.24,128.91 45.1,132.93 0,0.07 -0.01,0.14 -0.01,0.21 -1.31,17.09 1.54,29.55 8.48,37.04 6.37,6.87 14.78,7.9 19.22,7.9 1.43,0 2.31,-0.11 2.32,-0.12 1.64,-0.21 3.31,0.4 4.41,1.65 1.1,1.25 1.52,2.96 1.1,4.57 -3.67,14.04 -14.22,26.17 -19.62,31.67 17.92,26.71 11.96,50.53 11.68,51.58 -0.47,1.79 -1.88,3.17 -3.68,3.59 -1.8,0.43 -3.69,-0.18 -4.91,-1.56 -6.34,-7.24 -12.07,-10.33 -16.34,-11.57 19.49,43.03 7.07,77.69 6.5,79.23 -0.61,1.66 -2.06,2.87 -3.81,3.18 -1.74,0.31 -3.52,-0.32 -4.67,-1.67l-5.71 -6.67c0.89,74 -43.11,120.21 -70.62,141.8 -10.52,8.26 -18.64,12.94 -21.09,14.29 -14.64,15.17 -29.58,22.86 -44.43,22.86zm28.97 -234.13c-2.76,0 -4.99,-2.23 -4.99,-5l0 -61.7c0,-15.22 12.38,-27.61 27.61,-27.61l8.72 0 0.22 0 52.76 0c2.76,0 5,2.24 5,5 0,2.76 -2.24,5 -5,5l-43.84 0c0.86,2.42 1.31,4.99 1.31,7.64 0.01,12.48 -10.15,22.63 -22.62,22.63 -5.36,0 -10.29,-1.83 -14.17,-4.93l0 53.97c0,2.77 -2.23,5 -5,5zm44.32 36.62c-0.35,0 -0.7,-0.04 -1.06,-0.12 -2.69,-0.58 -4.41,-3.24 -3.83,-5.94 11.86,-55.01 39.43,-73.06 40.59,-73.8 2.33,-1.48 5.42,-0.79 6.9,1.54 1.48,2.32 0.8,5.4 -1.52,6.89 -0.35,0.23 -25.32,17.03 -36.2,67.48 -0.5,2.34 -2.57,3.95 -4.88,3.95zm-146.58 4.2c-2.3,0 -4.37,-1.6 -4.88,-3.94 -10.99,-50.97 -35.93,-67.31 -36.18,-67.47 -2.33,-1.48 -3.02,-4.57 -1.54,-6.9 1.48,-2.33 4.57,-3.02 6.9,-1.54 1.17,0.74 28.73,18.79 40.59,73.8 0.58,2.7 -1.13,5.36 -3.83,5.94 -0.36,0.08 -0.71,0.11 -1.06,0.11zm-30.02 -179.49c-0.63,0 -1.27,-0.12 -1.89,-0.37 -2.55,-1.04 -3.78,-3.96 -2.74,-6.51 0.36,-0.9 8.56,-20.13 41.27,-30.1 -27.08,-20.87 -27.96,-41.76 -27.98,-42.72 -0.07,-2.76 2.11,-5.06 4.87,-5.13 2.7,-0.09 5.03,2.09 5.12,4.83 0.05,0.95 1.38,21.29 32.43,40.92 0.09,0.06 0.18,0.12 0.27,0.18l0.07 0.05 0.04 0.02 0.05 0.05 0.05 0.03 0.09 0.08 0.05 0.04 0.05 0.04 0.04 0.04 0.05 0.05 0.04 0.03 0.06 0.05 0.03 0.03 0.05 0.06 0.03 0.03 0.06 0.06c0.59,0.63 1.03,1.42 1.23,2.32l0.03 0.1 0 0.02 0.02 0.12 0.02 0.11 0 0.01 0.02 0.12 0 0 0.01 0.11 0 0.01 0.01 0.11c0.01,0.17 0.02,0.33 0.02,0.49l0 0.03 -0.01 0.09 0 0.03 0 0.09 -0.01 0.04 0 0.08 -0.01 0.04 0 0.08 -0.01 0.04 -0.01 0.08 -0.02 0.12 -0.01 0.04 -0.01 0.08 -0.01 0.04 -0.01 0.08 -0.01 0.04 -0.02 0.08 -0.01 0.04 -0.02 0.08 -0.01 0.04 -0.02 0.07 -0.02 0.04 -0.02 0.08 -0.01 0.04 -0.01 0.01 -0.07 0.22 -0.04 0.08 -0.01 0.03 -0.04 0.09 -0.01 0.02 -0.04 0.09 -0.01 0.02 -0.04 0.1 -0.01 0.01 -0.05 0.1 0 0 -0.01 0.01 -0.11 0.2 -0.01 0.01 -0.05 0.1 -0.02 0.01 -0.04 0.07 -0.01 0.02 -0.07 0.09 -0.01 0.03 -0.05 0.07 -0.01 0 -0.04 0.06 -0.03 0.04 -0.07 0.09 0 0 -0.16 0.19 0 0 -0.05 0.06 -0.03 0.03c-0.08,0.08 -0.16,0.17 -0.25,0.25l0 0 -0.06 0.06 -0.03 0.02 -0.03 0.03 -0.06 0.05 0 0 -0.06 0.05 -0.04 0.03 -0.03 0.02 -0.06 0.05 0 0 -0.06 0.05 -0.04 0.02 -0.02 0.02 -0.07 0.05 -0.01 0 -0.05 0.04 -0.05 0.03 -0.02 0.01 -0.07 0.04 -0.01 0.02 -0.05 0.03 -0.06 0.03 -0.01 0.01 -0.07 0.03 -0.03 0.02 -0.04 0.02 -0.06 0.04 -0.07 0.03 -0.05 0.02 -0.02 0.02 -0.07 0.03 -0.02 0.01 -0.05 0.02 -0.06 0.03 -0.02 0 -0.07 0.03 -0.03 0.02 -0.04 0.01 -0.07 0.03 0 0 -0.07 0.03 -0.05 0.01 -0.03 0.01 -0.07 0.02 -0.02 0.01 -0.06 0.02 -0.06 0.02 -0.01 0 -0.07 0.02 -0.05 0.01 -0.03 0.01 -0.07 0.02 -0.02 0 -0.06 0.01 -0.07 0.02 -0.01 0 -0.02 0.01c-36.57,7.51 -44.73,26.6 -44.81,26.79 -0.79,1.94 -2.66,3.12 -4.63,3.12zm206.63 2.99c-1.96,0 -3.82,-1.17 -4.62,-3.08 -0.38,-0.88 -8.82,-19.44 -44.82,-26.84l-0.03 0 -0.01 -0.01 -0.06 -0.01 -0.06 -0.01 -0.02 -0.01 -0.08 -0.01 -0.03 -0.01 -0.04 -0.01 -0.07 -0.02 -0.01 -0.01 -0.07 -0.02 -0.05 -0.01 -0.02 -0.01 -0.08 -0.02 -0.02 -0.01 -0.05 -0.02 -0.07 -0.02 0 -0.01 -0.07 -0.02 -0.05 -0.02 -0.03 -0.01 -0.07 -0.03 -0.01 -0.01 -0.06 -0.02 -0.06 -0.03 -0.01 0 -0.07 -0.04 -0.03 -0.01 -0.04 -0.02 -0.07 -0.04 0 0 -0.07 -0.03 -0.04 -0.02 -0.03 -0.02 -0.07 -0.04 0 0 -0.11 -0.07 -0.02 -0.01 -0.08 -0.05 -0.05 -0.03 -0.05 -0.04 -0.02 -0.01 -0.06 -0.04 -0.02 -0.02 -0.04 -0.03 -0.06 -0.04 -0.01 -0.01 -0.06 -0.05 -0.03 -0.02 -0.03 -0.02 -0.06 -0.06 0 0 -0.06 -0.05 -0.03 -0.02 -0.09 -0.08 0 0 -0.06 -0.06 -0.03 -0.03 -0.17 -0.17 -0.02 -0.03 -0.06 -0.06 0 0 -0.05 -0.06 -0.1 -0.12 0 0 -0.05 -0.07 -0.03 -0.03 -0.02 -0.03 -0.05 -0.06 0 -0.01 -0.05 -0.07 -0.02 -0.02 -0.03 -0.04 -0.04 -0.06 0 -0.01 -0.05 -0.07 -0.01 -0.02 -0.06 -0.09 0 -0.01 -0.06 -0.1 0 -0.01 -0.06 -0.1 0 -0.01 -0.1 -0.2 -0.01 -0.01 0 -0.01 -0.05 -0.1 -0.01 -0.02 -0.03 -0.09 -0.02 -0.02 -0.03 -0.09 -0.01 -0.03 -0.03 -0.08 -0.03 -0.1 -0.01 -0.02 -0.01 -0.03 -0.03 -0.08 -0.01 -0.04 -0.02 -0.08 -0.01 -0.04 -0.02 -0.07 -0.01 -0.05 -0.02 -0.07 -0.01 -0.05 -0.02 -0.07 -0.01 -0.05 -0.01 -0.07 -0.01 -0.05 -0.01 -0.07 0 -0.05 -0.01 -0.07 -0.01 -0.05 -0.01 -0.07 0 -0.05 -0.01 -0.08 0 -0.04 -0.01 -0.08 0 -0.04 0 -0.08 0 -0.04 0 -0.09 0 -0.03 0 -0.09 0 -0.03 0 -0.1 0 -0.02 0.01 -0.1 0 -0.02 0.01 -0.11 0 -0.01 0.02 -0.12 0 0 0.01 -0.12 0.01 0 0.01 -0.12 0.01 -0.01 0.02 -0.1 0 -0.03 0.02 -0.09 0.01 -0.03 0.02 -0.09 0.01 -0.04 0.02 -0.08 0.01 -0.04 0.02 -0.07c0.04,-0.12 0.08,-0.23 0.12,-0.34l0.02 -0.07 0.02 -0.04 0.05 -0.11 0.03 -0.08 0.02 -0.03 0.04 -0.08 0.01 -0.03 0.04 -0.08 0.02 -0.03 0.04 -0.08 0.02 -0.03c0.24,-0.43 0.54,-0.82 0.89,-1.15l0.05 -0.06 0.04 -0.03 0.09 -0.08 0.05 -0.04 0.05 -0.04c0.18,-0.15 0.38,-0.29 0.58,-0.42 31.12,-19.68 32.39,-40.06 32.42,-40.92 0.13,-2.74 2.39,-4.92 5.18,-4.8 2.74,0.1 4.89,2.36 4.82,5.1 -0.03,0.97 -0.9,21.86 -27.98,42.73 32.71,9.96 40.9,29.2 41.26,30.09 1.05,2.56 -0.18,5.47 -2.74,6.52 -0.62,0.25 -1.26,0.37 -1.88,0.37zm-88.66 239.89l-29.32 0c-6.54,0 -11.51,-4.56 -13.63,-12.51l-8.04 -30.16c-0.4,-1.5 -0.08,-3.1 0.87,-4.33 0.94,-1.23 2.41,-1.96 3.96,-1.96l63 0c1.56,0 3.02,0.73 3.97,1.96 0.94,1.23 1.26,2.83 0.86,4.33l-8.04 30.16c-2.12,7.95 -7.09,12.51 -13.63,12.51zm-39.65 -38.96l6.36 23.88c0.51,1.9 1.7,5.08 3.97,5.08l29.32 0c2.27,0 3.46,-3.18 3.97,-5.08l6.37 -23.88 -49.99 0zm55.36 62l-60.74 0c-14.74,0 -20.25,-14.48 -22.89,-21.44l-16.66 -43.78c-0.98,-2.58 0.31,-5.47 2.89,-6.45 2.58,-0.98 5.47,0.31 6.45,2.9l16.66 43.78c4.16,10.93 7.83,15 13.55,15l60.74 0c5.72,0 9.39,-4.07 13.55,-15l16.66 -43.78c0.98,-2.58 3.87,-3.88 6.45,-2.9 2.58,0.98 3.88,3.87 2.9,6.45l-16.66 43.78c-2.65,6.96 -8.16,21.44 -22.9,21.44zm-78.5 -181.29c-12.48,0 -22.63,-10.15 -22.63,-22.63 0,-2.65 0.45,-5.22 1.32,-7.64l-43.84 0c-2.76,0 -5,-2.24 -5,-5 0,-2.76 2.24,-5 5,-5l61.7 0c15.22,0 27.61,12.39 27.61,27.61l0 61.7c0,2.77 -2.24,5 -5,5 -2.76,0 -5,-2.23 -5,-5l0 -53.97c-3.87,3.1 -8.8,4.93 -14.16,4.93zm-10.06 -30.27c-1.67,2.18 -2.57,4.84 -2.57,7.64 0,6.97 5.67,12.63 12.63,12.63 6.18,0 11.33,-4.35 12.42,-10.3 -2.85,-5.89 -8.89,-9.97 -15.87,-9.97l-6.61 0zm116.39 0l-6.61 0c-6.98,0 -13.02,4.07 -15.87,9.97 1.09,5.95 6.24,10.3 12.42,10.3 6.96,0 12.63,-5.67 12.63,-12.63 0,-2.8 -0.9,-5.46 -2.57,-7.64z"/>
 </g>
</svg>
