<?xml version="1.0" encoding="UTF-8"?>
<svg id="Line" xmlns="http://www.w3.org/2000/svg" viewBox="0 0 64 64">
  <defs>
    <style>
      .cls-1 {
        fill: #facc15;
      }
    </style>
  </defs>
  <path class="cls-1" d="M59.99609,4.97852c-.01157-.54617-.46023-.98209-1.00635-.97852-.71289,.00488-17.60059,.22754-29.95166,10.10742-.28076,.22461-.41846,.58496-.36279,.94043,.01025,.06348,.86084,5.93848-3.7959,13.31543-.32617-2.3877-1.11963-5.54785-3.04639-6.67188-.39014-.22461-.88184-.16504-1.20361,.14941-.44446,.43524-10.76416,10.77795-6.68353,26.62665l-9.66315,9.83136c-.89789,.91518,.49234,2.34485,1.42682,1.40227-.00006,.00007,9.71588-9.885,9.71588-9.885,1.26538,.47125,3.81482,1.22003,7.24158,1.22003,14.48692,.57702,36.9848-18.40874,37.3291-46.05762Zm-11.35645,27.86719c-14.19135,18.98138-27.33813,16.8421-31.68756,15.41718l14.31256-14.56171c.91207-.93956-.50699-2.32951-1.4268-1.4023,.00004-.00004-14.23787,14.48573-14.23787,14.48573-2.51935-11.88824,3.75525-20.42322,5.80774-22.82855,1.16504,1.5127,1.66309,5.08594,1.69922,7.28223-.01356,.92083,1.26042,1.34283,1.79543,.59077,5.92869-7.77632,5.96531-14.48237,5.81346-16.49604,10.09082-7.80762,23.54736-9.08691,27.2876-9.29395-.10986,14.75391-9.25732,26.66895-9.36377,26.80664Z"/>
</svg>
