<?xml version="1.0" encoding="UTF-8"?>
<!DOCTYPE svg PUBLIC "-//W3C//DTD SVG 1.1//EN" "http://www.w3.org/Graphics/SVG/1.1/DTD/svg11.dtd">
<!-- Creator: CorelDRAW -->
<svg xmlns="http://www.w3.org/2000/svg" xml:space="preserve" width="1.70666in" height="1.70666in" version="1.1" style="shape-rendering:geometricPrecision; text-rendering:geometricPrecision; image-rendering:optimizeQuality; fill-rule:evenodd; clip-rule:evenodd"
viewBox="0 0 1707 1707"
 xmlns:xlink="http://www.w3.org/1999/xlink">
 <defs>
  <style type="text/css">
   <![CDATA[
    .fil0 {fill:#facc15}
   ]]>
  </style>
 </defs>
 <g id="Layer_x0020_1">
  <metadata id="CorelCorpID_0Corel-Layer"/>
  <g id="_293803712">
   <g>
    <g>
     <path class="fil0" d="M1189 1514l-671 0c-13,0 -24,-10 -24,-23l0 -283c0,-107 87,-194 194,-194l77 0c13,0 24,10 24,23l0 50c0,36 29,65 64,65 36,0 65,-29 65,-65l0 -50c0,-13 10,-23 23,-23l77 0c107,0 194,87 194,194l0 283c0,13 -10,23 -23,23zm-648 -47l625 0 0 -259c0,-81 -66,-147 -148,-147l-53 0 0 26c0,61 -50,111 -112,111 -61,0 -111,-50 -111,-111l0 -26 -54 0c-81,0 -147,66 -147,147l0 259z"/>
    </g>
    <g>
     <path class="fil0" d="M853 1198c-61,0 -111,-50 -111,-111l0 -98c0,-8 4,-16 12,-20 7,-4 16,-4 23,0 46,28 106,28 152,0 7,-4 16,-4 24,0 7,4 11,12 11,20l0 98c1,62 -49,111 -111,111zm-64 -172l0 61c0,36 29,65 64,65 36,0 65,-29 65,-65l0 -61c-41,15 -88,15 -129,0z"/>
    </g>
    <g>
     <path class="fil0" d="M853 1037c-107,0 -195,-87 -195,-195l0 -125c0,-107 88,-195 195,-195 108,0 195,88 195,195l0 125c0,107 -87,195 -195,195zm0 -468c-82,0 -148,66 -148,148l0 125c0,82 66,148 148,148 82,0 149,-66 149,-148l0 -125c0,-81 -67,-148 -149,-148z"/>
    </g>
    <g>
     <path class="fil0" d="M949 746c-23,0 -48,-4 -74,-16 -53,-24 -153,-1 -186,10 -13,3 -26,-3 -30,-16 -4,-12 3,-25 16,-29 5,-2 139,-43 219,-8 61,28 119,-2 120,-2 11,-6 25,-2 31,10 6,11 2,25 -9,31 -3,2 -39,20 -87,20z"/>
    </g>
    <g>
     <path class="fil0" d="M670 1514c-13,0 -24,-10 -24,-23l0 -155c0,-13 11,-23 24,-23 13,0 23,10 23,23l0 155c0,13 -10,23 -23,23z"/>
    </g>
    <g>
     <path class="fil0" d="M1037 1514c-13,0 -24,-10 -24,-23l0 -155c0,-13 11,-23 24,-23 13,0 23,10 23,23l0 155c0,13 -10,23 -23,23z"/>
    </g>
    <g>
     <path class="fil0" d="M518 1514l-495 0c-13,0 -23,-10 -23,-23l0 -209c0,-82 67,-148 149,-148l57 0c13,0 23,10 23,23l0 37c0,23 19,41 41,41 23,0 42,-18 42,-41l0 -37c0,-13 10,-23 23,-23l57 0c82,0 149,66 149,148l0 209c0,13 -11,23 -23,23zm-471 -47l447 0 0 -185c0,-56 -46,-102 -102,-102l-33 0 0 14c0,48 -40,88 -89,88 -48,0 -88,-40 -88,-88l0 -14 -33 0c-57,0 -103,46 -103,102l0 185 1 0z"/>
    </g>
    <g>
     <path class="fil0" d="M270 1282c-48,0 -88,-40 -88,-88l0 -72c0,-9 5,-16 12,-21 7,-4 16,-4 24,1 32,19 73,19 105,0 7,-5 16,-5 24,-1 7,5 11,12 11,21l0 72c1,48 -39,88 -88,88zm-41 -125l0 37c0,23 19,41 41,41 23,0 42,-18 42,-41l0 -37c-27,8 -56,8 -83,0z"/>
    </g>
    <g>
     <path class="fil0" d="M270 1163c-82,0 -149,-67 -149,-150l0 -92c0,-82 67,-150 149,-150 83,0 150,68 150,150l0 92c0,83 -67,150 -150,150zm0 -345c-56,0 -103,46 -103,103l0 92c0,57 47,103 103,103 57,0 104,-46 104,-103l0 -92c0,-57 -47,-103 -104,-103z"/>
    </g>
    <g>
     <path class="fil0" d="M341 948c-18,0 -37,-3 -57,-12 -37,-16 -109,0 -133,7 -12,4 -26,-2 -29,-15 -4,-12 3,-25 15,-29 11,-3 106,-32 166,-5 42,18 82,-2 83,-2 11,-6 25,-2 31,10 6,11 2,25 -9,31 -2,1 -30,15 -67,15z"/>
    </g>
    <g>
     <path class="fil0" d="M135 1514c-13,0 -23,-10 -23,-23l0 -114c0,-13 10,-24 23,-24 13,0 24,11 24,24l0 114c0,13 -11,23 -24,23z"/>
    </g>
    <g>
     <path class="fil0" d="M406 1514c-13,0 -24,-10 -24,-23l0 -114c0,-13 11,-24 24,-24 13,0 23,11 23,24l0 114c0,13 -11,23 -23,23z"/>
    </g>
    <g>
     <path class="fil0" d="M1683 1514l-494 0c-13,0 -23,-10 -23,-23l0 -209c0,-82 66,-148 149,-148l56 0c13,0 24,10 24,23l0 37c0,23 18,41 41,41 23,0 42,-18 42,-41l0 -37c0,-13 10,-23 23,-23l57 0c82,0 149,66 149,148l0 209c0,13 -11,23 -24,23zm-471 -47l448 0 0 -185c0,-56 -46,-102 -102,-102l-34 0 0 14c0,48 -39,88 -88,88 -48,0 -88,-40 -88,-88l0 -14 -33 0c-57,0 -103,46 -103,102l0 185z"/>
    </g>
    <g>
     <path class="fil0" d="M1436 1282c-49,0 -88,-40 -88,-88l0 -72c0,-9 4,-16 12,-21 7,-4 16,-4 23,1 32,19 74,19 106,0 7,-5 16,-5 23,-1 8,5 12,12 12,21l0 72c0,48 -39,88 -88,88zm-41 -125l0 37c0,23 18,41 41,41 23,0 42,-18 42,-41l0 -37c-27,8 -57,8 -83,0z"/>
    </g>
    <g>
     <path class="fil0" d="M1436 1163c-83,0 -150,-67 -150,-150l0 -92c0,-82 67,-150 150,-150 83,0 150,68 150,150l0 92c0,83 -67,150 -150,150zm0 -345c-57,0 -103,46 -103,103l0 92c0,57 46,103 103,103 57,0 103,-46 103,-103l0 -92c0,-57 -46,-103 -103,-103l0 0z"/>
    </g>
    <g>
     <path class="fil0" d="M1506 948c-17,0 -37,-3 -57,-12 -37,-16 -108,0 -132,7 -13,4 -26,-2 -30,-15 -4,-12 3,-25 15,-29 11,-3 106,-32 166,-5 42,18 83,-2 83,-2 12,-6 26,-2 32,10 6,11 1,25 -10,31 -2,1 -29,15 -67,15z"/>
    </g>
    <g>
     <path class="fil0" d="M1301 1514c-13,0 -23,-10 -23,-23l0 -114c0,-13 10,-24 23,-24 13,0 23,11 23,24l0 114c0,13 -10,23 -23,23z"/>
    </g>
    <g>
     <path class="fil0" d="M1571 1514c-13,0 -23,-10 -23,-23l0 -114c0,-13 10,-24 23,-24 13,0 24,11 24,24l0 114c0,13 -11,23 -24,23z"/>
    </g>
    <g>
     <path class="fil0" d="M910 466c-8,0 -17,-3 -25,-7l-32 -20 -32 19c-17,11 -37,10 -53,-2 -16,-12 -23,-31 -19,-50l8 -37 -28 -24c-15,-13 -20,-33 -14,-52 6,-19 22,-31 42,-33l37 -4 15 -34c7,-18 25,-29 44,-29 20,0 37,11 45,29l15 34 37 4c19,2 36,14 42,33 6,19 0,39 -15,52l-28 24 9 37c4,19 -3,38 -19,50 -9,6 -19,10 -29,10zm-57 -227c-1,0 -1,1 -2,2l-20 47c-3,8 -11,13 -19,14l-51 4c-1,1 -1,1 -2,2 0,1 0,1 1,2l38 34c7,5 10,14 8,23l-12 49c0,1 0,2 1,2 1,1 2,1 2,1l44 -27c8,-4 17,-4 24,0l44 27c1,0 1,0 2,-1 1,0 1,-1 1,-2l-11 -49c-2,-9 1,-18 7,-23l39 -34c0,-1 1,-1 0,-2 0,-1 -1,-1 -2,-2l-51 -4c-8,-1 -16,-6 -19,-14l-20 -47c0,-1 -1,-2 -2,-2z"/>
    </g>
    <g>
     <path class="fil0" d="M327 715c-8,0 -17,-3 -25,-7l-32 -19 -31 19c-18,10 -38,9 -54,-3 -16,-11 -23,-31 -19,-50l8 -36 -28 -25c-15,-13 -20,-33 -14,-51 6,-19 22,-32 42,-34l37 -3 15 -35c7,-18 25,-29 44,-29 20,0 37,11 45,29l15 35 37 3c20,2 36,15 42,34 6,18 1,38 -14,51l-28 25 8 36c4,19 -3,39 -19,50 -9,7 -19,10 -29,10zm-57 -77c5,0 9,1 12,4l44 26c1,0 2,0 3,0 0,-1 1,-1 0,-2l-11 -50c-2,-9 1,-17 7,-23l39 -34c1,-1 1,-1 0,-2 0,-1 0,-1 -1,-1l-51 -5c-9,-1 -16,-6 -20,-14l-20 -47c-1,-2 -3,-2 -4,0l-20 47c-3,8 -11,13 -19,14l-51 5c-1,0 -1,0 -2,1 0,1 0,2 1,2l38 34c7,6 10,14 8,23l-12 50c0,1 0,1 1,2 1,0 1,0 2,0l44 -26c4,-3 8,-4 12,-4z"/>
    </g>
    <g>
     <path class="fil0" d="M1379 715c-10,0 -20,-3 -29,-10 -15,-11 -23,-31 -18,-50l8 -36 -28 -25c-15,-13 -21,-33 -14,-51 6,-19 22,-32 42,-34l37 -3 14 -35c8,-18 25,-29 45,-29 20,0 37,11 45,29l15 35 37 3c19,2 36,15 42,34 6,18 0,38 -15,51l-28 25 8 36c5,19 -2,39 -18,50 -16,12 -37,13 -54,3l-32 -19 -32 19c-8,4 -16,7 -25,7zm57 -77c4,0 8,1 12,4l44 26c1,0 1,0 2,0 1,-1 1,-1 1,-2l-11 -50c-2,-9 1,-17 7,-23l38 -34c1,-1 1,-1 1,-2 0,-1 -1,-1 -2,-1l-51 -5c-8,-1 -16,-6 -19,-14l-20 -47c-1,-2 -3,-2 -4,0l-20 47c-4,8 -11,13 -19,14l-51 5c-1,0 -2,0 -2,1 -1,1 0,2 0,2l39 34c6,6 9,14 7,23l-11 50c-1,1 0,1 1,2 0,0 1,0 2,0l44 -26c4,-3 8,-4 12,-4z"/>
    </g>
   </g>
  </g>
 </g>
</svg>
